<svg xmlns="http://www.w3.org/2000/svg" xmlns:xlink="http://www.w3.org/1999/xlink" version="1.1" x="0px" y="0px" viewBox="0 0 100 100" enable-background="new 0 0 100 100" xml:space="preserve"><g><path fill="#000000" d="M27.342,31.624c-3.159,0-4.811,6.689-4.811,13.297c0,6.608,1.653,13.297,4.811,13.297   s4.811-6.689,4.811-13.297C32.153,38.313,30.501,31.624,27.342,31.624z M27.342,56.339c-0.995,0-2.931-4.03-2.931-11.418   s1.936-11.417,2.931-11.417c0.995,0,2.931,4.03,2.931,11.417S28.337,56.339,27.342,56.339z"></path><path fill="#000000" d="M42.839,26.374c-0.474,0.212-0.687,0.767-0.476,1.241c0.054,0.121,5.328,12.343-0.054,34.097   c-0.125,0.504,0.183,1.013,0.687,1.138c0.076,0.019,0.152,0.028,0.226,0.028c0.422,0,0.806-0.286,0.912-0.714   c5.536-22.376,0.177-34.797-0.054-35.315C43.869,26.375,43.313,26.163,42.839,26.374z"></path><path fill="#000000" d="M47.97,22.725c-0.254-0.453-0.826-0.612-1.278-0.359c-0.453,0.253-0.614,0.826-0.361,1.279   c0.05,0.089,4.926,9.008,3.39,22.49c-0.059,0.516,0.312,0.982,0.828,1.04c0.036,0.004,0.072,0.006,0.108,0.006   c0.472,0,0.878-0.354,0.933-0.833C53.197,32.228,48.184,23.106,47.97,22.725z"></path><path fill="#000000" d="M55.871,62.857c0.067,0.014,0.134,0.021,0.2,0.021c0.433,0,0.822-0.301,0.918-0.741   c3.939-18.197,0.542-28.408,0.395-28.834c-0.168-0.49-0.702-0.749-1.193-0.582c-0.49,0.168-0.752,0.702-0.585,1.193   c0.008,0.025,0.856,2.551,1.221,7.221c0.337,4.313,0.32,11.389-1.675,20.604C55.042,62.247,55.364,62.747,55.871,62.857z"></path><path fill="#000000" d="M84.16,91.144c-5.298-3.723-12.534-3.256-19.531-2.801c-5.476,0.354-10.647,0.689-14.489-0.971   c-7.215-3.118-8.332-11.913-8.504-14.401h11.623c2.309,6.592,5.287,10.079,8.642,10.079c7.881,0,12.59-19.386,12.59-38.128   S69.781,6.793,61.901,6.793c-3.353,0-6.332,3.488-8.642,10.079H36.655c-0.081,0-0.158,0.013-0.233,0.033   c-2.127-6.116-5.05-10.111-8.628-10.111c-7.881,0-12.59,19.386-12.59,38.128s4.709,38.128,12.59,38.128   c3.577,0,6.501-3.995,8.628-10.111c0.075,0.019,0.152,0.033,0.233,0.033h3.093c0.065,1.106,0.301,3.467,1.168,6.12   c1.578,4.832,4.51,8.292,8.477,10.007c4.258,1.84,9.648,1.491,15.357,1.121c6.671-0.432,13.572-0.879,18.329,2.464   c0.164,0.115,0.352,0.171,0.539,0.171c0.296,0,0.587-0.139,0.77-0.4C84.687,92.029,84.585,91.443,84.16,91.144z M61.901,8.673   c5.172,0,10.71,14.565,10.71,36.248s-5.538,36.248-10.71,36.248c-2.326,0-4.715-2.97-6.646-8.199h4.318   c5.523,0,8.504-14.452,8.504-28.049s-2.98-28.049-8.504-28.049h-4.319C57.185,11.644,59.577,8.673,61.901,8.673z M27.794,81.169   c-5.172,0-10.71-14.566-10.71-36.248s5.538-36.248,10.71-36.248s10.71,14.565,10.71,36.248S32.967,81.169,27.794,81.169z    M40.384,44.921c0-9.405-1.186-18.971-3.364-26.169h22.551c1.169,0,2.951,1.905,4.443,7.253c1.406,5.041,2.181,11.759,2.181,18.916   s-0.775,13.876-2.181,18.916c-1.492,5.348-3.273,7.253-4.443,7.253h-5.234c-0.221-0.122-0.489-0.157-0.748-0.073   c-0.058,0.019-0.112,0.044-0.164,0.073H37.021C39.198,63.892,40.384,54.326,40.384,44.921z"></path></g></svg>